<svg width="130" height="16" viewBox="0 0 130 16" fill="none" xmlns="http://www.w3.org/2000/svg">
<circle cx="7.77778" cy="7.77778" r="7.77778" fill="#FF7F50"/>
<path d="M35.6992 12.25V8.23307L32.2031 2.70573H34.4622L36.7083 6.48177L38.9089 2.70573H41.1289L37.6198 8.24609V12.25H35.6992ZM40.6602 8.69531C40.6602 8.08767 40.8099 7.49957 41.1094 6.93099C41.4089 6.36241 41.832 5.92839 42.3789 5.62891C42.9301 5.32943 43.5443 5.17969 44.2214 5.17969C45.2674 5.17969 46.1246 5.5204 46.793 6.20182C47.4614 6.87891 47.7956 7.73611 47.7956 8.77344C47.7956 9.81944 47.457 10.6875 46.7799 11.3776C46.1072 12.0634 45.2587 12.4062 44.2344 12.4062C43.6007 12.4062 42.9952 12.263 42.418 11.9766C41.8451 11.6901 41.4089 11.2713 41.1094 10.7201C40.8099 10.1645 40.6602 9.48958 40.6602 8.69531ZM42.5352 8.79297C42.5352 9.47873 42.6979 10.0039 43.0234 10.3685C43.349 10.7331 43.7504 10.9154 44.2279 10.9154C44.7053 10.9154 45.1046 10.7331 45.4258 10.3685C45.7513 10.0039 45.9141 9.47439 45.9141 8.77995C45.9141 8.10286 45.7513 7.58203 45.4258 7.21745C45.1046 6.85287 44.7053 6.67057 44.2279 6.67057C43.7504 6.67057 43.349 6.85287 43.0234 7.21745C42.6979 7.58203 42.5352 8.10721 42.5352 8.79297ZM53.7852 12.25V11.2148C53.5334 11.5838 53.2014 11.8746 52.7891 12.0872C52.3811 12.2999 51.9492 12.4062 51.4935 12.4062C51.0291 12.4062 50.6124 12.3043 50.2435 12.1003C49.8746 11.8963 49.6076 11.6098 49.4427 11.2409C49.2778 10.872 49.1953 10.362 49.1953 9.71094V5.33594H51.0247V8.51302C51.0247 9.48524 51.0573 10.082 51.1224 10.3034C51.1918 10.5204 51.3155 10.694 51.4935 10.8242C51.6714 10.9501 51.8971 11.013 52.1706 11.013C52.4831 11.013 52.763 10.9284 53.0104 10.7591C53.2578 10.5855 53.4271 10.3728 53.5182 10.1211C53.6094 9.86502 53.6549 9.24219 53.6549 8.2526V5.33594H55.4844V12.25H53.7852ZM59.1367 12.25H57.3073V5.33594H59.0065V6.31901C59.2973 5.8546 59.5577 5.54861 59.7878 5.40104C60.0221 5.25347 60.2869 5.17969 60.582 5.17969C60.9987 5.17969 61.4002 5.29471 61.7865 5.52474L61.22 7.11979C60.9119 6.92014 60.6254 6.82031 60.3607 6.82031C60.1046 6.82031 59.8876 6.89193 59.7096 7.03516C59.5317 7.17405 59.3906 7.42795 59.2865 7.79688C59.1866 8.1658 59.1367 8.93837 59.1367 10.1146V12.25ZM66.3047 12.25V2.70573H69.3971C70.569 2.70573 71.3329 2.75347 71.6888 2.84896C72.2357 2.99219 72.6936 3.30469 73.0625 3.78646C73.4314 4.26389 73.6159 4.88238 73.6159 5.64193C73.6159 6.22787 73.5095 6.72049 73.2969 7.11979C73.0842 7.5191 72.8129 7.83377 72.4831 8.0638C72.1575 8.2895 71.8255 8.43924 71.487 8.51302C71.0269 8.60417 70.3607 8.64974 69.4883 8.64974H68.2318V12.25H66.3047ZM68.2318 4.32031V7.02865H69.2865C70.046 7.02865 70.5538 6.97873 70.8099 6.87891C71.066 6.77908 71.2656 6.62283 71.4089 6.41016C71.5564 6.19748 71.6302 5.95009 71.6302 5.66797C71.6302 5.32075 71.5282 5.03429 71.3242 4.80859C71.1202 4.5829 70.862 4.44184 70.5495 4.38542C70.3194 4.34201 69.8572 4.32031 69.1628 4.32031H68.2318ZM79.1888 10.0495L81.0117 10.3555C80.7773 11.0239 80.4062 11.5339 79.8984 11.8854C79.395 12.2326 78.7634 12.4062 78.0039 12.4062C76.8016 12.4062 75.9119 12.0135 75.3346 11.2279C74.8789 10.5985 74.651 9.80425 74.651 8.84505C74.651 7.69922 74.9505 6.80295 75.5495 6.15625C76.1484 5.50521 76.9058 5.17969 77.8216 5.17969C78.8503 5.17969 79.6619 5.5204 80.2565 6.20182C80.8511 6.87891 81.1354 7.9184 81.1094 9.32031H76.526C76.5391 9.86285 76.6866 10.286 76.9687 10.5898C77.2509 10.8893 77.6024 11.0391 78.0234 11.0391C78.3099 11.0391 78.5508 10.9609 78.7461 10.8047C78.9414 10.6484 79.089 10.3967 79.1888 10.0495ZM79.293 8.20052C79.2799 7.67101 79.1432 7.26953 78.8828 6.99609C78.6224 6.71832 78.3056 6.57943 77.9323 6.57943C77.533 6.57943 77.2031 6.72483 76.9427 7.01563C76.6823 7.30642 76.5542 7.70139 76.5586 8.20052H79.293ZM84.3581 12.25H82.5286V5.33594H84.2279V6.31901C84.5187 5.8546 84.7791 5.54861 85.0091 5.40104C85.2435 5.25347 85.5082 5.17969 85.8034 5.17969C86.22 5.17969 86.6215 5.29471 87.0078 5.52474L86.4414 7.11979C86.1332 6.92014 85.8468 6.82031 85.582 6.82031C85.3259 6.82031 85.1089 6.89193 84.931 7.03516C84.753 7.17405 84.612 7.42795 84.5078 7.79688C84.408 8.1658 84.3581 8.93837 84.3581 10.1146V12.25ZM93.8307 7.38021L92.0273 7.70573C91.9666 7.34549 91.8277 7.07422 91.6107 6.89193C91.398 6.70964 91.1202 6.61849 90.7773 6.61849C90.3216 6.61849 89.957 6.77691 89.6836 7.09375C89.4145 7.40625 89.2799 7.93142 89.2799 8.66927C89.2799 9.48958 89.4167 10.069 89.6901 10.4076C89.9679 10.7461 90.339 10.9154 90.8034 10.9154C91.1506 10.9154 91.4349 10.8177 91.6562 10.6224C91.8776 10.4227 92.0338 10.082 92.125 9.60026L93.9219 9.90625C93.7352 10.7309 93.3772 11.3537 92.8477 11.7747C92.3181 12.1957 91.6085 12.4062 90.7187 12.4062C89.7075 12.4062 88.9002 12.0872 88.2969 11.4492C87.6979 10.8112 87.3984 9.92795 87.3984 8.79948C87.3984 7.65799 87.7001 6.7704 88.3034 6.13672C88.9067 5.4987 89.7227 5.17969 90.7513 5.17969C91.5933 5.17969 92.2617 5.36198 92.7565 5.72656C93.2556 6.08681 93.6137 6.63802 93.8307 7.38021ZM99.2279 10.0495L101.051 10.3555C100.816 11.0239 100.445 11.5339 99.9375 11.8854C99.434 12.2326 98.8025 12.4062 98.043 12.4062C96.8407 12.4062 95.9509 12.0135 95.3737 11.2279C94.918 10.5985 94.6901 9.80425 94.6901 8.84505C94.6901 7.69922 94.9896 6.80295 95.5885 6.15625C96.1875 5.50521 96.9449 5.17969 97.8607 5.17969C98.8893 5.17969 99.7009 5.5204 100.296 6.20182C100.89 6.87891 101.174 7.9184 101.148 9.32031H96.5651C96.5781 9.86285 96.7257 10.286 97.0078 10.5898C97.2899 10.8893 97.6415 11.0391 98.0625 11.0391C98.349 11.0391 98.5898 10.9609 98.7852 10.8047C98.9805 10.6484 99.128 10.3967 99.2279 10.0495ZM99.332 8.20052C99.319 7.67101 99.1823 7.26953 98.9219 6.99609C98.6615 6.71832 98.3446 6.57943 97.9713 6.57943C97.572 6.57943 97.2422 6.72483 96.9818 7.01563C96.7213 7.30642 96.5933 7.70139 96.5977 8.20052H99.332ZM108.935 12.25H107.105V8.72135C107.105 7.97483 107.066 7.49306 106.988 7.27604C106.91 7.05469 106.782 6.88325 106.604 6.76172C106.431 6.64019 106.22 6.57943 105.973 6.57943C105.656 6.57943 105.372 6.66623 105.12 6.83984C104.868 7.01346 104.694 7.24349 104.599 7.52995C104.508 7.81641 104.462 8.34592 104.462 9.11849V12.25H102.633V5.33594H104.332V6.35156C104.935 5.57031 105.695 5.17969 106.611 5.17969C107.014 5.17969 107.383 5.25347 107.717 5.40104C108.052 5.54427 108.303 5.72873 108.473 5.95443C108.646 6.18012 108.766 6.4362 108.831 6.72266C108.9 7.00912 108.935 7.41927 108.935 7.95313V12.25ZM113.967 5.33594V6.79427H112.717V9.58073C112.717 10.145 112.728 10.4748 112.75 10.5703C112.776 10.6615 112.83 10.7374 112.913 10.7982C113 10.8589 113.104 10.8893 113.225 10.8893C113.395 10.8893 113.64 10.8307 113.961 10.7135L114.117 12.1328C113.692 12.3151 113.21 12.4062 112.672 12.4062C112.342 12.4062 112.045 12.352 111.78 12.2435C111.515 12.1306 111.32 11.9874 111.194 11.8138C111.072 11.6359 110.988 11.3971 110.94 11.0977C110.901 10.885 110.882 10.4553 110.882 9.80859V6.79427H110.042V5.33594H110.882V3.96224L112.717 2.89453V5.33594H113.967ZM115.237 4.39844V2.70573H117.066V4.39844H115.237ZM115.237 12.25V5.33594H117.066V12.25H115.237ZM118.948 12.25V2.70573H120.777V12.25H118.948ZM126.663 10.0495L128.486 10.3555C128.251 11.0239 127.88 11.5339 127.372 11.8854C126.869 12.2326 126.237 12.4062 125.478 12.4062C124.276 12.4062 123.386 12.0135 122.809 11.2279C122.353 10.5985 122.125 9.80425 122.125 8.84505C122.125 7.69922 122.424 6.80295 123.023 6.15625C123.622 5.50521 124.38 5.17969 125.296 5.17969C126.324 5.17969 127.136 5.5204 127.73 6.20182C128.325 6.87891 128.609 7.9184 128.583 9.32031H124C124.013 9.86285 124.161 10.286 124.443 10.5898C124.725 10.8893 125.076 11.0391 125.497 11.0391C125.784 11.0391 126.025 10.9609 126.22 10.8047C126.415 10.6484 126.563 10.3967 126.663 10.0495ZM126.767 8.20052C126.754 7.67101 126.617 7.26953 126.357 6.99609C126.096 6.71832 125.78 6.57943 125.406 6.57943C125.007 6.57943 124.677 6.72483 124.417 7.01563C124.156 7.30642 124.028 7.70139 124.033 8.20052H126.767Z" fill="black"/>
</svg>
