<svg width="26" height="26" viewBox="0 0 26 26" fill="none" xmlns="http://www.w3.org/2000/svg">
<circle cx="13" cy="13" r="12" stroke="#3E4148" stroke-width="2"/>
<path d="M11.8095 15.0512V14.8431C11.8095 14.2681 11.8569 13.8097 11.9516 13.4681C12.0497 13.1264 12.1918 12.8524 12.3778 12.6461C12.5639 12.4364 12.7905 12.2452 13.0577 12.0727C13.2709 11.9374 13.4603 11.8004 13.626 11.6617C13.7952 11.5197 13.9288 11.3674 14.0269 11.2051C14.125 11.0427 14.174 10.8583 14.174 10.652C14.174 10.4524 14.1267 10.2765 14.032 10.1243C13.9372 9.97208 13.807 9.85538 13.6413 9.7742C13.4789 9.68963 13.2979 9.64735 13.0983 9.64735C12.8988 9.64735 12.711 9.69301 12.5351 9.78435C12.3626 9.87568 12.2205 10.0059 12.1089 10.175C12.0007 10.3408 11.9448 10.5421 11.9415 10.7788H9.60742C9.61757 10.0685 9.78163 9.48667 10.0996 9.03339C10.421 8.58012 10.8455 8.24523 11.3732 8.02874C11.9009 7.80887 12.4827 7.69893 13.1186 7.69893C13.8155 7.69893 14.4345 7.80718 14.9757 8.02367C15.5203 8.24016 15.9482 8.55982 16.2594 8.98265C16.5706 9.40549 16.7262 9.92303 16.7262 10.5353C16.7262 10.9378 16.6586 11.293 16.5233 11.6008C16.388 11.9087 16.1986 12.181 15.955 12.4178C15.7148 12.6512 15.4324 12.8643 15.1076 13.0571C14.8539 13.2059 14.6425 13.3615 14.4734 13.5239C14.3076 13.6863 14.1825 13.8723 14.0979 14.082C14.0133 14.2884 13.9711 14.5421 13.9711 14.8431V15.0512H11.8095ZM12.9309 18.3797C12.5656 18.3797 12.2527 18.2512 11.9922 17.9941C11.7351 17.737 11.6083 17.4258 11.6117 17.0605C11.6083 16.7019 11.7351 16.3958 11.9922 16.1421C12.2527 15.885 12.5656 15.7564 12.9309 15.7564C13.2793 15.7564 13.5854 15.885 13.8493 16.1421C14.1131 16.3958 14.2468 16.7019 14.2501 17.0605C14.2468 17.304 14.1825 17.5256 14.0573 17.7252C13.9355 17.9247 13.7749 18.0837 13.5753 18.2021C13.3791 18.3205 13.1643 18.3797 12.9309 18.3797Z" fill="#3E4148"/>
</svg>
