<svg width="106" height="14" viewBox="0 0 106 14" fill="none" xmlns="http://www.w3.org/2000/svg">
<circle cx="5.5" cy="6.77783" r="5.5" fill="#FF7F50"/>
<path d="M21.1289 11V7.38477L17.9824 2.41016H20.0156L22.0371 5.80859L24.0176 2.41016H26.0156L22.8574 7.39648V11H21.1289ZM25.5938 7.80078C25.5938 7.25391 25.7285 6.72461 25.998 6.21289C26.2676 5.70117 26.6484 5.31055 27.1406 5.04102C27.6367 4.77148 28.1895 4.63672 28.7988 4.63672C29.7402 4.63672 30.5117 4.94336 31.1133 5.55664C31.7148 6.16602 32.0156 6.9375 32.0156 7.87109C32.0156 8.8125 31.7109 9.59375 31.1016 10.2148C30.4961 10.832 29.7324 11.1406 28.8105 11.1406C28.2402 11.1406 27.6953 11.0117 27.1758 10.7539C26.6602 10.4961 26.2676 10.1191 25.998 9.62305C25.7285 9.12305 25.5938 8.51562 25.5938 7.80078ZM27.2812 7.88867C27.2812 8.50586 27.4277 8.97852 27.7207 9.30664C28.0137 9.63477 28.375 9.79883 28.8047 9.79883C29.2344 9.79883 29.5938 9.63477 29.8828 9.30664C30.1758 8.97852 30.3223 8.50195 30.3223 7.87695C30.3223 7.26758 30.1758 6.79883 29.8828 6.4707C29.5938 6.14258 29.2344 5.97852 28.8047 5.97852C28.375 5.97852 28.0137 6.14258 27.7207 6.4707C27.4277 6.79883 27.2812 7.27148 27.2812 7.88867ZM37.4062 11V10.0684C37.1797 10.4004 36.8809 10.6621 36.5098 10.8535C36.1426 11.0449 35.7539 11.1406 35.3438 11.1406C34.9258 11.1406 34.5508 11.0488 34.2188 10.8652C33.8867 10.6816 33.6465 10.4238 33.498 10.0918C33.3496 9.75977 33.2754 9.30078 33.2754 8.71484V4.77734H34.9219V7.63672C34.9219 8.51172 34.9512 9.04883 35.0098 9.24805C35.0723 9.44336 35.1836 9.59961 35.3438 9.7168C35.5039 9.83008 35.707 9.88672 35.9531 9.88672C36.2344 9.88672 36.4863 9.81055 36.709 9.6582C36.9316 9.50195 37.084 9.31055 37.166 9.08398C37.248 8.85352 37.2891 8.29297 37.2891 7.40234V4.77734H38.9355V11H37.4062ZM42.2227 11H40.5762V4.77734H42.1055V5.66211C42.3672 5.24414 42.6016 4.96875 42.8086 4.83594C43.0195 4.70312 43.2578 4.63672 43.5234 4.63672C43.8984 4.63672 44.2598 4.74023 44.6074 4.94727L44.0977 6.38281C43.8203 6.20312 43.5625 6.11328 43.3242 6.11328C43.0938 6.11328 42.8984 6.17773 42.7383 6.30664C42.5781 6.43164 42.4512 6.66016 42.3574 6.99219C42.2676 7.32422 42.2227 8.01953 42.2227 9.07812V11ZM48.6738 11V2.41016H51.457C52.5117 2.41016 53.1992 2.45312 53.5195 2.53906C54.0117 2.66797 54.4238 2.94922 54.7559 3.38281C55.0879 3.8125 55.2539 4.36914 55.2539 5.05273C55.2539 5.58008 55.1582 6.02344 54.9668 6.38281C54.7754 6.74219 54.5312 7.02539 54.2344 7.23242C53.9414 7.43555 53.6426 7.57031 53.3379 7.63672C52.9238 7.71875 52.3242 7.75977 51.5391 7.75977H50.4082V11H48.6738ZM50.4082 3.86328V6.30078H51.3574C52.041 6.30078 52.498 6.25586 52.7285 6.16602C52.959 6.07617 53.1387 5.93555 53.2676 5.74414C53.4004 5.55273 53.4668 5.33008 53.4668 5.07617C53.4668 4.76367 53.375 4.50586 53.1914 4.30273C53.0078 4.09961 52.7754 3.97266 52.4941 3.92188C52.2871 3.88281 51.8711 3.86328 51.2461 3.86328H50.4082ZM60.2695 9.01953L61.9102 9.29492C61.6992 9.89648 61.3652 10.3555 60.9082 10.6719C60.4551 10.9844 59.8867 11.1406 59.2031 11.1406C58.1211 11.1406 57.3203 10.7871 56.8008 10.0801C56.3906 9.51367 56.1855 8.79883 56.1855 7.93555C56.1855 6.9043 56.4551 6.09766 56.9941 5.51562C57.5332 4.92969 58.2148 4.63672 59.0391 4.63672C59.9648 4.63672 60.6953 4.94336 61.2305 5.55664C61.7656 6.16602 62.0215 7.10156 61.998 8.36328H57.873C57.8848 8.85156 58.0176 9.23242 58.2715 9.50586C58.5254 9.77539 58.8418 9.91016 59.2207 9.91016C59.4785 9.91016 59.6953 9.83984 59.8711 9.69922C60.0469 9.55859 60.1797 9.33203 60.2695 9.01953ZM60.3633 7.35547C60.3516 6.87891 60.2285 6.51758 59.9941 6.27148C59.7598 6.02148 59.4746 5.89648 59.1387 5.89648C58.7793 5.89648 58.4824 6.02734 58.248 6.28906C58.0137 6.55078 57.8984 6.90625 57.9023 7.35547H60.3633ZM64.9219 11H63.2754V4.77734H64.8047V5.66211C65.0664 5.24414 65.3008 4.96875 65.5078 4.83594C65.7188 4.70312 65.957 4.63672 66.2227 4.63672C66.5977 4.63672 66.959 4.74023 67.3066 4.94727L66.7969 6.38281C66.5195 6.20312 66.2617 6.11328 66.0234 6.11328C65.793 6.11328 65.5977 6.17773 65.4375 6.30664C65.2773 6.43164 65.1504 6.66016 65.0566 6.99219C64.9668 7.32422 64.9219 8.01953 64.9219 9.07812V11ZM73.4473 6.61719L71.8242 6.91016C71.7695 6.58594 71.6445 6.3418 71.4492 6.17773C71.2578 6.01367 71.0078 5.93164 70.6992 5.93164C70.2891 5.93164 69.9609 6.07422 69.7148 6.35938C69.4727 6.64062 69.3516 7.11328 69.3516 7.77734C69.3516 8.51562 69.4746 9.03711 69.7207 9.3418C69.9707 9.64648 70.3047 9.79883 70.7227 9.79883C71.0352 9.79883 71.291 9.71094 71.4902 9.53516C71.6895 9.35547 71.8301 9.04883 71.9121 8.61523L73.5293 8.89062C73.3613 9.63281 73.0391 10.1934 72.5625 10.5723C72.0859 10.9512 71.4473 11.1406 70.6465 11.1406C69.7363 11.1406 69.0098 10.8535 68.4668 10.2793C67.9277 9.70508 67.6582 8.91016 67.6582 7.89453C67.6582 6.86719 67.9297 6.06836 68.4727 5.49805C69.0156 4.92383 69.75 4.63672 70.6758 4.63672C71.4336 4.63672 72.0352 4.80078 72.4805 5.12891C72.9297 5.45312 73.252 5.94922 73.4473 6.61719ZM78.3047 9.01953L79.9453 9.29492C79.7344 9.89648 79.4004 10.3555 78.9434 10.6719C78.4902 10.9844 77.9219 11.1406 77.2383 11.1406C76.1562 11.1406 75.3555 10.7871 74.8359 10.0801C74.4258 9.51367 74.2207 8.79883 74.2207 7.93555C74.2207 6.9043 74.4902 6.09766 75.0293 5.51562C75.5684 4.92969 76.25 4.63672 77.0742 4.63672C78 4.63672 78.7305 4.94336 79.2656 5.55664C79.8008 6.16602 80.0566 7.10156 80.0332 8.36328H75.9082C75.9199 8.85156 76.0527 9.23242 76.3066 9.50586C76.5605 9.77539 76.877 9.91016 77.2559 9.91016C77.5137 9.91016 77.7305 9.83984 77.9062 9.69922C78.082 9.55859 78.2148 9.33203 78.3047 9.01953ZM78.3984 7.35547C78.3867 6.87891 78.2637 6.51758 78.0293 6.27148C77.7949 6.02148 77.5098 5.89648 77.1738 5.89648C76.8145 5.89648 76.5176 6.02734 76.2832 6.28906C76.0488 6.55078 75.9336 6.90625 75.9375 7.35547H78.3984ZM87.041 11H85.3945V7.82422C85.3945 7.15234 85.3594 6.71875 85.2891 6.52344C85.2188 6.32422 85.1035 6.16992 84.9434 6.06055C84.7871 5.95117 84.5977 5.89648 84.375 5.89648C84.0898 5.89648 83.834 5.97461 83.6074 6.13086C83.3809 6.28711 83.2246 6.49414 83.1387 6.75195C83.0566 7.00977 83.0156 7.48633 83.0156 8.18164V11H81.3691V4.77734H82.8984V5.69141C83.4414 4.98828 84.125 4.63672 84.9492 4.63672C85.3125 4.63672 85.6445 4.70312 85.9453 4.83594C86.2461 4.96484 86.4727 5.13086 86.625 5.33398C86.7812 5.53711 86.8887 5.76758 86.9473 6.02539C87.0098 6.2832 87.041 6.65234 87.041 7.13281V11ZM91.5703 4.77734V6.08984H90.4453V8.59766C90.4453 9.10547 90.4551 9.40234 90.4746 9.48828C90.498 9.57031 90.5469 9.63867 90.6211 9.69336C90.6992 9.74805 90.793 9.77539 90.9023 9.77539C91.0547 9.77539 91.2754 9.72266 91.5645 9.61719L91.7051 10.8945C91.3223 11.0586 90.8887 11.1406 90.4043 11.1406C90.1074 11.1406 89.8398 11.0918 89.6016 10.9941C89.3633 10.8926 89.1875 10.7637 89.0742 10.6074C88.9648 10.4473 88.8887 10.2324 88.8457 9.96289C88.8105 9.77148 88.793 9.38477 88.793 8.80273V6.08984H88.0371V4.77734H88.793V3.54102L90.4453 2.58008V4.77734H91.5703ZM92.7129 3.93359V2.41016H94.3594V3.93359H92.7129ZM92.7129 11V4.77734H94.3594V11H92.7129ZM96.0527 11V2.41016H97.6992V11H96.0527ZM102.996 9.01953L104.637 9.29492C104.426 9.89648 104.092 10.3555 103.635 10.6719C103.182 10.9844 102.613 11.1406 101.93 11.1406C100.848 11.1406 100.047 10.7871 99.5273 10.0801C99.1172 9.51367 98.9121 8.79883 98.9121 7.93555C98.9121 6.9043 99.1816 6.09766 99.7207 5.51562C100.26 4.92969 100.941 4.63672 101.766 4.63672C102.691 4.63672 103.422 4.94336 103.957 5.55664C104.492 6.16602 104.748 7.10156 104.725 8.36328H100.6C100.611 8.85156 100.744 9.23242 100.998 9.50586C101.252 9.77539 101.568 9.91016 101.947 9.91016C102.205 9.91016 102.422 9.83984 102.598 9.69922C102.773 9.55859 102.906 9.33203 102.996 9.01953ZM103.09 7.35547C103.078 6.87891 102.955 6.51758 102.721 6.27148C102.486 6.02148 102.201 5.89648 101.865 5.89648C101.506 5.89648 101.209 6.02734 100.975 6.28906C100.74 6.55078 100.625 6.90625 100.629 7.35547H103.09Z" fill="#FF7F50"/>
</svg>
