<svg width="14" height="16" viewBox="0 0 14 16" fill="none" xmlns="http://www.w3.org/2000/svg">
<path d="M11.7438 5.58229L1.39289 11.8242C0.783503 12.1898 0 11.7546 0 11.0407V4.07622C0 1.03797 3.28201 -0.859849 5.9198 0.654925L9.91567 2.9532L11.7351 3.99787C12.3358 4.3548 12.3445 5.22536 11.7438 5.58229ZM12.2653 10.6838L8.73955 12.7209L5.22249 14.7493C3.96017 15.4718 2.53246 15.3239 1.49649 14.5926C0.991567 14.2444 1.05251 13.4696 1.58355 13.1562L12.6484 6.5225C13.1707 6.20909 13.8584 6.50508 13.9542 7.10577C14.1718 8.45514 13.6147 9.90897 12.2653 10.6838Z" fill="white"/>
</svg>
